<svg width="11" height="11" viewBox="0 0 11 11" fill="none" xmlns="http://www.w3.org/2000/svg">
<path d="M10.5854 5.08542C10.3564 5.08542 10.1709 5.271 10.1709 5.5C10.1709 8.07561 8.07561 10.1709 5.5 10.1709C2.92454 10.1709 0.829146 8.07561 0.829146 5.5C0.829146 2.92454 2.92454 0.829146 5.5 0.829146C5.72898 0.829146 5.91458 0.643564 5.91458 0.414584C5.91458 0.185582 5.72898 0 5.5 0C2.46727 0 0 2.46727 0 5.5C0 8.53261 2.46727 11 5.5 11C8.53261 11 11 8.53261 11 5.5C11 5.27102 10.8144 5.08542 10.5854 5.08542Z" fill="#00B87C"/>
</svg>
