<svg width="20" height="19" viewBox="0 0 20 19" fill="none" xmlns="http://www.w3.org/2000/svg">
<path fill-rule="evenodd" clip-rule="evenodd" d="M2.31592 4.76863C2.31592 3.90348 3.01725 3.20215 3.88239 3.20215H14.7494C15.6146 3.20215 16.3159 3.90348 16.3159 4.76863V14.6357C16.3159 15.5008 15.6146 16.2021 14.7494 16.2021H3.88239C3.01725 16.2021 2.31592 15.5008 2.31592 14.6357V4.76863Z" stroke="#999999" stroke-width="1.56648" stroke-linecap="round" stroke-linejoin="round"/>
<rect x="7.31592" y="2.20215" width="4" height="15" fill="white"/>
<path fill-rule="evenodd" clip-rule="evenodd" d="M6.31592 7.58778C6.31592 7.21701 6.61649 6.91643 6.98727 6.91643H11.6446C12.0153 6.91643 12.3159 7.21701 12.3159 7.58778V11.8165C12.3159 12.1873 12.0153 12.4879 11.6446 12.4879H6.98727C6.61649 12.4879 6.31592 12.1873 6.31592 11.8165V7.58778Z" fill="#999999"/>
</svg>
