<svg width="19" height="19" viewBox="0 0 19 19" fill="none" xmlns="http://www.w3.org/2000/svg">
<path d="M13.3743 16.448V14.8815C13.3743 13.1512 11.9717 11.7485 10.2414 11.7485H3.97548C2.2452 11.7485 0.842529 13.1512 0.842529 14.8815V16.448" stroke="#00B87C" stroke-width="1.56648" stroke-linecap="round" stroke-linejoin="round"/>
<path fill-rule="evenodd" clip-rule="evenodd" d="M7.1083 8.61557C8.83858 8.61557 10.2412 7.2129 10.2412 5.48261C10.2412 3.75233 8.83858 2.34966 7.1083 2.34966C5.37801 2.34966 3.97534 3.75233 3.97534 5.48261C3.97534 7.2129 5.37801 8.61557 7.1083 8.61557Z" stroke="#00B87C" stroke-width="1.56648" stroke-linecap="round" stroke-linejoin="round"/>
<path d="M18.0736 16.448V14.8815C18.0725 13.4537 17.1063 12.2073 15.7239 11.8503" stroke="#00B87C" stroke-width="1.56648" stroke-linecap="round" stroke-linejoin="round"/>
<path d="M12.5911 2.45148C13.9773 2.80642 14.9469 4.05555 14.9469 5.48653C14.9469 6.91752 13.9773 8.16664 12.5911 8.52158" stroke="#00B87C" stroke-width="1.56648" stroke-linecap="round" stroke-linejoin="round"/>
</svg>
