<svg width="19" height="18" viewBox="0 0 19 18" fill="none" xmlns="http://www.w3.org/2000/svg">
<path d="M13.851 1.5C14.5693 1.5 15.2582 1.78534 15.7661 2.29325C16.274 2.80116 16.5593 3.49004 16.5593 4.20833V9.94083C16.5591 10.4378 16.3616 10.9144 16.0102 11.2658L11.326 15.9508C11.1519 16.1249 10.9452 16.2631 10.7177 16.3573C10.4902 16.4515 10.2464 16.5 10.0002 16.5H4.26766C3.54936 16.5 2.86049 16.2147 2.35258 15.7067C1.84467 15.1988 1.55933 14.51 1.55933 13.7917V4.20833C1.55933 3.49004 1.84467 2.80116 2.35258 2.29325C2.86049 1.78534 3.54936 1.5 4.26766 1.5H13.851ZM13.851 2.75H4.26766C3.88089 2.75 3.50995 2.90365 3.23646 3.17714C2.96297 3.45063 2.80933 3.82156 2.80933 4.20833V13.7917C2.80933 14.5967 3.46266 15.25 4.26766 15.25H9.89266V12.5417C9.89261 11.8499 10.1573 11.1843 10.6324 10.6815C11.1075 10.1786 11.757 9.87667 12.4477 9.8375L12.601 9.83333H15.3093V4.20833C15.3093 3.82156 15.1557 3.45063 14.8822 3.17714C14.6087 2.90365 14.2378 2.75 13.851 2.75ZM14.4252 11.0833H12.601C12.2349 11.0834 11.8822 11.2211 11.6129 11.4692C11.3437 11.7173 11.1776 12.0576 11.1477 12.4225L11.1427 12.5417V14.3658L14.4252 11.0833Z" fill="#999999"/>
</svg>
