<svg width="19" height="19" viewBox="0 0 19 19" fill="none" xmlns="http://www.w3.org/2000/svg">
<path d="M2.40894 14.0982V9.39882C2.40894 5.50568 5.56495 2.34967 9.45808 2.34967C13.3512 2.34967 16.5072 5.50568 16.5072 9.39882V14.0982" stroke="#7B8794" stroke-width="1.56648" stroke-linecap="round" stroke-linejoin="round"/>
<path d="M16.5072 10.9653H17.2905C17.2905 10.5328 16.9398 10.1821 16.5072 10.1821V10.9653ZM2.40894 10.9654V10.1821C1.97636 10.1821 1.6257 10.5328 1.6257 10.9654H2.40894ZM15.724 14.8815C15.724 15.3141 15.3733 15.6648 14.9408 15.6648V17.2312C16.2385 17.2312 17.2905 16.1792 17.2905 14.8815H15.724ZM14.9408 15.6648H14.1575V17.2312H14.9408V15.6648ZM14.1575 15.6648C13.7249 15.6648 13.3743 15.3141 13.3743 14.8815H11.8078C11.8078 16.1792 12.8598 17.2312 14.1575 17.2312V15.6648ZM13.3743 14.8815V12.5318H11.8078V14.8815H13.3743ZM13.3743 12.5318C13.3743 12.0992 13.7249 11.7486 14.1575 11.7486V10.1821C12.8598 10.1821 11.8078 11.2341 11.8078 12.5318H13.3743ZM14.1575 11.7486H16.5072V10.1821H14.1575V11.7486ZM15.724 10.9653V14.8815H17.2905V10.9653H15.724ZM1.6257 14.8816C1.6257 16.1793 2.6777 17.2313 3.97541 17.2313V15.6648C3.54284 15.6648 3.19217 15.3141 3.19217 14.8816H1.6257ZM3.97541 17.2313H4.75865V15.6648H3.97541V17.2313ZM4.75865 17.2313C6.05636 17.2313 7.10837 16.1793 7.10837 14.8816H5.54189C5.54189 15.3141 5.19122 15.6648 4.75865 15.6648V17.2313ZM7.10837 14.8816V12.5318H5.54189V14.8816H7.10837ZM7.10837 12.5318C7.10837 11.2341 6.05636 10.1821 4.75865 10.1821V11.7486C5.19122 11.7486 5.54189 12.0993 5.54189 12.5318H7.10837ZM4.75865 10.1821H2.40894V11.7486H4.75865V10.1821ZM1.6257 10.9654V14.8816H3.19217V10.9654H1.6257Z" fill="#7B8794"/>
</svg>
