<svg width="19" height="18" viewBox="0 0 19 18" fill="none" xmlns="http://www.w3.org/2000/svg">
<path fill-rule="evenodd" clip-rule="evenodd" d="M4.11924 12.6636C4.21846 12.7632 4.29449 12.8835 4.34191 13.0158C4.38933 13.1482 4.40697 13.2894 4.39358 13.4293C4.3264 14.077 4.19904 14.717 4.01313 15.3411C5.34662 15.0324 6.16105 14.6749 6.53099 14.4875C6.74081 14.3812 6.98245 14.356 7.20968 14.4168C7.86107 14.5904 8.53243 14.6778 9.20656 14.6768C13.0264 14.6768 15.8979 11.9935 15.8979 8.94133C15.8979 5.89009 13.0264 3.2059 9.20656 3.2059C5.38677 3.2059 2.51523 5.89009 2.51523 8.94133C2.51523 10.3446 3.10502 11.6465 4.11924 12.6636ZM3.64798 16.3964C3.42149 16.4413 3.19428 16.4824 2.96642 16.5197C2.77524 16.5503 2.62994 16.3515 2.70546 16.1737C2.79033 15.9735 2.86813 15.7704 2.9387 15.5648L2.94156 15.5552C3.17863 14.867 3.37172 14.0755 3.44246 13.3385C2.26956 12.1627 1.55933 10.6237 1.55933 8.94133C1.55933 5.24581 4.98338 2.25 9.20656 2.25C13.4298 2.25 16.8538 5.24581 16.8538 8.94133C16.8538 12.6369 13.4298 15.6327 9.20656 15.6327C8.44916 15.6337 7.69488 15.5353 6.96306 15.3402C6.46599 15.5916 5.39633 16.0494 3.64798 16.3964Z" fill="#999999"/>
<path fill-rule="evenodd" clip-rule="evenodd" d="M5.38306 6.55158C5.38306 6.42482 5.43341 6.30325 5.52305 6.21361C5.61268 6.12398 5.73425 6.07362 5.86101 6.07362H12.5523C12.6791 6.07362 12.8007 6.12398 12.8903 6.21361C12.9799 6.30325 13.0303 6.42482 13.0303 6.55158C13.0303 6.67834 12.9799 6.79991 12.8903 6.88954C12.8007 6.97917 12.6791 7.02953 12.5523 7.02953H5.86101C5.73425 7.02953 5.61268 6.97917 5.52305 6.88954C5.43341 6.79991 5.38306 6.67834 5.38306 6.55158ZM5.38306 8.94134C5.38306 8.81458 5.43341 8.69301 5.52305 8.60337C5.61268 8.51374 5.73425 8.46339 5.86101 8.46339H12.5523C12.6791 8.46339 12.8007 8.51374 12.8903 8.60337C12.9799 8.69301 13.0303 8.81458 13.0303 8.94134C13.0303 9.0681 12.9799 9.18967 12.8903 9.2793C12.8007 9.36894 12.6791 9.41929 12.5523 9.41929H5.86101C5.73425 9.41929 5.61268 9.36894 5.52305 9.2793C5.43341 9.18967 5.38306 9.0681 5.38306 8.94134ZM5.38306 11.3311C5.38306 11.2043 5.43341 11.0828 5.52305 10.9931C5.61268 10.9035 5.73425 10.8531 5.86101 10.8531H9.68463C9.81139 10.8531 9.93296 10.9035 10.0226 10.9931C10.1122 11.0828 10.1626 11.2043 10.1626 11.3311C10.1626 11.4579 10.1122 11.5794 10.0226 11.6691C9.93296 11.7587 9.81139 11.8091 9.68463 11.8091H5.86101C5.73425 11.8091 5.61268 11.7587 5.52305 11.6691C5.43341 11.5794 5.38306 11.4579 5.38306 11.3311Z" fill="#999999"/>
</svg>
