<svg width="19" height="19" viewBox="0 0 19 19" fill="none" xmlns="http://www.w3.org/2000/svg">
<path d="M9.05933 2.84558C12.7718 2.84558 15.8093 5.88308 15.8093 9.59558C15.8093 13.3081 12.7718 16.3456 9.05933 16.3456C5.34683 16.3456 2.30933 13.3081 2.30933 9.59558C2.30933 5.88308 5.34683 2.84558 9.05933 2.84558ZM9.05933 1.72058C4.72808 1.72058 1.18433 5.26433 1.18433 9.59558C1.18433 13.9268 4.72808 17.4706 9.05933 17.4706C13.3906 17.4706 16.9343 13.9268 16.9343 9.59558C16.9343 5.26433 13.3906 1.72058 9.05933 1.72058Z" fill="#999999"/>
<path d="M13.5593 9.03308H9.62183V5.09558H8.49683V9.03308H4.55933V10.1581H8.49683V14.0956H9.62183V10.1581H13.5593V9.03308Z" fill="#999999"/>
</svg>
