<svg width="19" height="18" viewBox="0 0 19 18" fill="none" xmlns="http://www.w3.org/2000/svg">
<path d="M4.55933 1.125H10.1843V2.25H4.55933C4.26096 2.25 3.97481 2.36853 3.76383 2.5795C3.55285 2.79048 3.43433 3.07663 3.43433 3.375V14.625C3.43433 14.9234 3.55285 15.2095 3.76383 15.4205C3.97481 15.6315 4.26096 15.75 4.55933 15.75H13.5593C13.8577 15.75 14.1438 15.6315 14.3548 15.4205C14.5658 15.2095 14.6843 14.9234 14.6843 14.625V6.75H15.8093V14.625C15.8093 15.2217 15.5723 15.794 15.1503 16.216C14.7284 16.6379 14.1561 16.875 13.5593 16.875H4.55933C3.96259 16.875 3.39029 16.6379 2.96834 16.216C2.54638 15.794 2.30933 15.2217 2.30933 14.625V3.375C2.30933 2.77826 2.54638 2.20597 2.96834 1.78401C3.39029 1.36205 3.96259 1.125 4.55933 1.125Z" fill="#999999"/>
<path d="M10.1843 5.0625V1.125L15.8093 6.75H11.8718C11.4243 6.75 10.9951 6.57221 10.6786 6.25574C10.3621 5.93928 10.1843 5.51005 10.1843 5.0625Z" fill="#999999"/>
<path fill-rule="evenodd" clip-rule="evenodd" d="M5.68433 12.9375C5.68433 12.7883 5.74359 12.6452 5.84908 12.5398C5.95457 12.4343 6.09764 12.375 6.24683 12.375H8.49683C8.64601 12.375 8.78908 12.4343 8.89457 12.5398C9.00006 12.6452 9.05933 12.7883 9.05933 12.9375C9.05933 13.0867 9.00006 13.2298 8.89457 13.3352C8.78908 13.4407 8.64601 13.5 8.49683 13.5H6.24683C6.09764 13.5 5.95457 13.4407 5.84908 13.3352C5.74359 13.2298 5.68433 13.0867 5.68433 12.9375ZM5.68433 10.6875C5.68433 10.5383 5.74359 10.3952 5.84908 10.2898C5.95457 10.1843 6.09764 10.125 6.24683 10.125H11.8718C12.021 10.125 12.1641 10.1843 12.2696 10.2898C12.3751 10.3952 12.4343 10.5383 12.4343 10.6875C12.4343 10.8367 12.3751 10.9798 12.2696 11.0852C12.1641 11.1907 12.021 11.25 11.8718 11.25H6.24683C6.09764 11.25 5.95457 11.1907 5.84908 11.0852C5.74359 10.9798 5.68433 10.8367 5.68433 10.6875ZM5.68433 8.4375C5.68433 8.28832 5.74359 8.14524 5.84908 8.03975C5.95457 7.93426 6.09764 7.875 6.24683 7.875H11.8718C12.021 7.875 12.1641 7.93426 12.2696 8.03975C12.3751 8.14524 12.4343 8.28832 12.4343 8.4375C12.4343 8.58668 12.3751 8.72976 12.2696 8.83525C12.1641 8.94074 12.021 9 11.8718 9H6.24683C6.09764 9 5.95457 8.94074 5.84908 8.83525C5.74359 8.72976 5.68433 8.58668 5.68433 8.4375Z" fill="#999999"/>
</svg>
