<svg width="19" height="18" viewBox="0 0 19 18" fill="none" xmlns="http://www.w3.org/2000/svg">
<path d="M13.4496 6.27767e-09C14.1785 -4.89121e-05 14.8798 0.285799 15.4096 0.798904C15.9394 1.31201 16.2576 2.01347 16.2989 2.7594L16.3033 2.925V8.1198C15.8928 7.85005 15.4501 7.63559 14.9862 7.4817V2.925C14.9862 2.52973 14.8411 2.14891 14.5799 1.85815C14.3187 1.56738 13.9604 1.38793 13.576 1.3554L13.4496 1.35H3.35204C2.82521 1.35 2.35985 1.6218 2.08326 2.0367C1.65797 1.80352 1.16376 1.73911 0.695068 1.8558C0.894906 1.33504 1.23616 0.88389 1.67842 0.555785C2.12068 0.227681 2.64542 0.0363663 3.19048 0.00450011L3.35204 6.27767e-09H13.4496Z" fill="#999999"/>
<path d="M8.50111 14.5636C8.66682 15.0879 8.89575 15.5818 9.18024 16.0364H3.65141C2.85625 16.0364 2.0912 15.7246 1.51322 15.1648C0.93524 14.6051 0.588138 13.8399 0.54312 13.0261L0.53833 12.8455V4.61979C1.00313 4.78848 1.51034 4.78848 1.97514 4.61979V12.8455C1.97517 13.2768 2.1335 13.6924 2.41868 14.0096C2.70385 14.3268 3.095 14.5225 3.51443 14.5578L3.65141 14.5636H8.50111Z" fill="#999999"/>
<path d="M8.16376 10.3527C8.41488 9.859 8.7333 9.40444 9.10941 9.00271H5.54454L5.45673 9.00901C5.29159 9.0323 5.1412 9.11892 5.03591 9.25139C4.93063 9.38386 4.87827 9.55234 4.88941 9.72283C4.90055 9.89331 4.97436 10.0531 5.09594 10.17C5.21753 10.2869 5.37784 10.3522 5.54454 10.3527H8.16463H8.16376Z" fill="#999999"/>
<path d="M11.2561 5.84641C11.423 5.84646 11.5836 5.91143 11.7055 6.02819C11.8274 6.14494 11.9016 6.30478 11.9129 6.4754C11.9243 6.64603 11.8721 6.81471 11.7668 6.94738C11.6615 7.08005 11.511 7.1668 11.3457 7.19011L11.2561 7.19641H5.5453C5.37845 7.19636 5.21784 7.13139 5.09592 7.01464C4.974 6.89788 4.89987 6.73804 4.8885 6.56742C4.87712 6.3968 4.92936 6.22811 5.03465 6.09544C5.13995 5.96278 5.29044 5.87602 5.45574 5.85271L5.5453 5.84641H11.2561Z" fill="#999999"/>
<path d="M1.15689 2.7C1.44798 2.7 1.72715 2.81853 1.93298 3.02951C2.13881 3.24049 2.25445 3.52664 2.25445 3.825C2.25445 4.12337 2.13881 4.40952 1.93298 4.6205C1.72715 4.83148 1.44798 4.95 1.15689 4.95C0.865795 4.95 0.586626 4.83148 0.380794 4.6205C0.174962 4.40952 0.0593262 4.12337 0.0593262 3.825C0.0593262 3.52664 0.174962 3.24049 0.380794 3.02951C0.586626 2.81853 0.865795 2.7 1.15689 2.7Z" fill="#999999"/>
<path d="M18.0594 13.05C18.0594 11.7372 17.5506 10.4781 16.6449 9.54981C15.7393 8.6215 14.5109 8.09999 13.2301 8.09999C11.9493 8.09999 10.721 8.6215 9.81534 9.54981C8.90967 10.4781 8.40088 11.7372 8.40088 13.05C8.40088 14.3628 8.90967 15.6219 9.81534 16.5502C10.721 17.4785 11.9493 18 13.2301 18C14.5109 18 15.7393 17.4785 16.6449 16.5502C17.5506 15.6219 18.0594 14.3628 18.0594 13.05ZM13.6692 13.5L13.67 15.7527C13.67 15.872 13.6238 15.9865 13.5415 16.0709C13.4591 16.1553 13.3475 16.2027 13.231 16.2027C13.1146 16.2027 13.0029 16.1553 12.9206 16.0709C12.8382 15.9865 12.792 15.872 12.792 15.7527V13.5H10.5925C10.4761 13.5 10.3644 13.4526 10.282 13.3682C10.1997 13.2838 10.1535 13.1693 10.1535 13.05C10.1535 12.9306 10.1997 12.8162 10.282 12.7318C10.3644 12.6474 10.4761 12.6 10.5925 12.6H12.7911V10.35C12.7911 10.2306 12.8374 10.1162 12.9197 10.0318C13.002 9.9474 13.1137 9.89999 13.2301 9.89999C13.3466 9.89999 13.4582 9.9474 13.5406 10.0318C13.6229 10.1162 13.6692 10.2306 13.6692 10.35V12.6H15.8617C15.9781 12.6 16.0898 12.6474 16.1721 12.7318C16.2544 12.8162 16.3007 12.9306 16.3007 13.05C16.3007 13.1693 16.2544 13.2838 16.1721 13.3682C16.0898 13.4526 15.9781 13.5 15.8617 13.5H13.6692Z" fill="#999999"/>
</svg>
