<?xml version="1.0" encoding="utf-8"?><svg xml:space="preserve" viewBox="0 0 100 100" y="0" x="0" xmlns="http://www.w3.org/2000/svg" id="Layer_1" version="1.1" width="139px" height="139px" xmlns:xlink="http://www.w3.org/1999/xlink" style="width:100%;height:100%;background-size:initial;background-repeat-y:initial;background-repeat-x:initial;background-position-y:initial;background-position-x:initial;background-origin:initial;background-image:initial;background-color:rgb(241, 242, 243);background-clip:initial;background-attachment:initial;animation-play-state:paused" ><g class="ldl-scale" style="transform-origin:50% 50%;transform:rotate(0deg) scale(0.59, 0.59);animation-play-state:paused" ><path d="M84.1 15.9c-8-7.9-20.9-7.9-28.8 0L41.7 29.6c-1.5 1.5-2.6 3.1-3.6 4.8.9-.2 1.9-.4 2.8-.6 1.9-.2 3.7-.3 5.6-.1l13.3-13.3c5.4-5.4 14.3-5.4 19.7 0 5.4 5.4 5.4 14.3 0 19.7L66.2 53.4l-.3.3c-.5.5-1.1 1-1.7 1.4-.7.5-1.4.9-2.1 1.3-1.4.7-2.9 1.1-4.4 1.3-.7.1-1.4.1-2.2.1-.7 0-1.4-.1-2.1-.2-2.6-.5-5.2-1.8-7.2-3.8s-3.3-4.6-3.8-7.2c-.1-.7-.2-1.4-.2-2.1-1.5.2-2.9.7-4.2 1.5-.7.4-1.3.9-2 1.4.1.8.3 1.6.6 2.4.9 3.1 2.6 6.1 5.1 8.5s5.4 4.2 8.5 5.1l2.4.6c.8.1 1.7.2 2.5.3 1.7.1 3.5-.1 5.2-.4.9-.2 1.8-.5 2.6-.8.9-.3 1.8-.7 2.6-1.1 1.7-.9 3.4-2.1 4.8-3.6l13.6-13.6c8.1-8 8.1-20.9.2-28.9z" style="fill:rgb(166, 166, 166);animation-play-state:paused" ></path>
<path d="M61.9 65.6c-.9.2-1.9.4-2.8.6-1.9.2-3.7.3-5.6.1L40.2 79.5c-5.4 5.4-14.3 5.4-19.7 0-5.4-5.4-5.4-14.3 0-19.7l13.3-13.3.3-.3c.5-.5 1.1-1 1.7-1.4.7-.5 1.4-.9 2.1-1.3 1.4-.7 2.9-1.1 4.4-1.3.7-.1 1.4-.1 2.2-.1.7 0 1.4.1 2.1.2 2.6.5 5.2 1.8 7.2 3.8s3.3 4.6 3.8 7.2c.1.7.2 1.4.2 2.1 1.5-.2 2.9-.7 4.2-1.5.7-.4 1.3-.9 2-1.4-.1-.8-.3-1.6-.6-2.4-.9-3.1-2.6-6.1-5.1-8.5s-5.4-4.2-8.5-5.1l-2.4-.6c-.8-.1-1.7-.2-2.5-.3-1.7-.1-3.5.1-5.2.4-.9.2-1.8.5-2.6.8-.9.3-1.8.7-2.6 1.1-1.7.9-3.4 2.1-4.8 3.6L15.9 55.3C8 63.2 8 76.1 15.9 84.1s20.8 7.9 28.8 0l13.6-13.6c1.5-1.5 2.7-3.1 3.6-4.9z" style="fill:rgb(166, 166, 166);animation-play-state:paused" ></path>
<metadata xmlns:d="https://loading.io/stock/" style="animation-play-state:paused" ><d:name style="animation-play-state:paused" >link</d:name>


<d:tags style="animation-play-state:paused" >chain,lock,circle,ring,shackle,url,link,web application</d:tags>


<d:license style="animation-play-state:paused" >by</d:license>


<d:slug style="animation-play-state:paused" >lpzc7a</d:slug></metadata></g><!-- generated by https://loading.io/ --></svg>