<?xml version="1.0" encoding="utf-8"?><svg xml:space="preserve" viewBox="0 0 100 100" y="0" x="0" xmlns="http://www.w3.org/2000/svg" id="圖層_1" version="1.1" width="200px" height="200px" xmlns:xlink="http://www.w3.org/1999/xlink" style="width:100%;height:100%;background-size:initial;background-repeat-y:initial;background-repeat-x:initial;background-position-y:initial;background-position-x:initial;background-origin:initial;background-image:initial;background-color:rgb(241, 242, 243);background-clip:initial;background-attachment:initial;animation-play-state:paused" ><g class="ldl-scale" style="transform-origin:50% 50%;transform:rotate(0deg) scale(0.8, 0.8);animation-play-state:paused" ><path d="M43.614 54.127L22.237 91.153" stroke-miterlimit="10" stroke-linejoin="round" stroke-linecap="round" stroke-width="2.3" stroke="#333" fill="none" style="stroke:rgb(54, 53, 53);animation-play-state:paused" ></path>
<path d="M53.291 20.282l14.793 8.54-11.991 20.769L41.3 41.05z" stroke-miterlimit="10" stroke-linejoin="round" stroke-linecap="round" stroke-width="2.2999539999999996" stroke="#333" fill="#849b87" style="stroke:rgb(54, 53, 53);fill:rgb(47, 45, 45);animation-play-state:paused" ></path>
<path stroke-miterlimit="10" stroke-linejoin="round" stroke-linecap="round" stroke-width="2.3" stroke="#333" fill="#849b87" d="M67.804 33.201L49.641 22.715a6.903 6.903 0 0 1-2.527-9.429l2.563-4.439 30.118 17.389-2.563 4.439a6.901 6.901 0 0 1-9.428 2.526z" style="stroke:rgb(54, 53, 53);fill:rgb(47, 45, 45);animation-play-state:paused" ></path>
<path stroke-miterlimit="10" stroke-linejoin="round" stroke-linecap="round" stroke-width="2.3" stroke="#333" fill="#849b87" d="M55.26 74.435l-35.056-20.24 8.045-13.935c3.022-5.234 9.714-7.027 14.948-4.005L59.3 45.552c5.234 3.022 7.027 9.714 4.005 14.948L55.26 74.435z" style="stroke:rgb(54, 53, 53);fill:rgb(47, 45, 45);animation-play-state:paused" ></path>
<path stroke-miterlimit="10" stroke-linejoin="round" stroke-linecap="round" stroke-width="2.3" stroke="#000" opacity=".2" d="M59.3 45.552l-.655-.378 7.474-12.945 1.685.973a6.902 6.902 0 0 0 9.429-2.527l2.563-4.439-15.059-8.694-27.005 46.773 17.528 10.12L63.305 60.5c3.022-5.234 1.229-11.926-4.005-14.948z" style="stroke:rgb(62, 61, 61);fill:rgb(62, 61, 61);animation-play-state:paused" ></path>
<metadata xmlns:d="https://loading.io/stock/" style="animation-play-state:paused" ><d:name style="animation-play-state:paused" >pin</d:name>
<d:tags style="animation-play-state:paused" >pin,needle,pushpin,tack,lock,hold,keep,fix,jab,poke,thumbtack</d:tags>
<d:license style="animation-play-state:paused" >by</d:license>
<d:slug style="animation-play-state:paused" >pczwky</d:slug></metadata></g><!-- generated by https://loading.io/ --></svg>