<svg width="24" height="24" viewBox="0 0 24 24" fill="none" xmlns="http://www.w3.org/2000/svg">
<path d="M17.0001 6.99988C15.3714 6.99974 13.7814 7.49654 12.4426 8.42392C11.1037 9.3513 10.0796 10.6651 9.50712 12.1899L11.3811 12.8929C11.8761 11.5783 12.8165 10.4789 14.0386 9.78629C15.2606 9.09364 16.6869 8.85156 18.0691 9.1022C19.4512 9.35284 20.7017 10.0803 21.6027 11.158C22.5037 12.2356 22.9982 13.5952 23.0001 14.9999C23.0001 16.5912 22.368 18.1173 21.2428 19.2425C20.1175 20.3677 18.5914 20.9999 17.0001 20.9999H7.00012C5.58335 21.0008 4.21197 20.5003 3.12881 19.587C2.04565 18.6738 1.32059 17.4067 1.08202 16.0102C0.843459 14.6137 1.10678 13.1777 1.82535 11.9567C2.54393 10.7357 3.6714 9.80836 5.00812 9.33888C4.92247 7.61149 5.47932 5.91355 6.57134 4.5724C7.66335 3.23124 9.2132 2.34183 10.9221 2.07562C12.631 1.80942 14.3779 2.18527 15.8262 3.13073C17.2744 4.07618 18.3213 5.52429 18.7651 7.19588C18.1858 7.06547 17.5939 6.99973 17.0001 6.99988Z" fill="#333333"/>
</svg>
